<svg width="49" height="68" viewBox="0 0 49 68" fill="none" xmlns="http://www.w3.org/2000/svg">
<g opacity="0.6">
<path opacity="0.54" d="M33.0494 46.8312C34.9328 46.2691 36.9274 46.1022 38.8815 46.3315C40.1626 46.4991 41.4666 46.8426 42.5349 47.5836C43.6248 48.3244 44.4574 49.4848 44.5968 50.7816C44.7591 52.2543 43.9888 53.7551 42.8019 54.6426C38.5934 57.7054 33.095 53.2538 31.3965 49.3055L33.0494 46.8312Z" fill="#1479F4"/>
</g>
<g opacity="0.6">
<path opacity="0.54" d="M17.8259 47.5685C15.9778 46.9204 13.9806 46.6474 12.0079 46.7925C10.7073 46.8891 9.40805 47.1837 8.28492 47.8514C7.18363 48.5409 6.28044 49.6472 6.07264 50.9471C5.84439 52.4231 6.54915 53.959 7.70505 54.8758C11.7837 58.1501 17.4586 53.9752 19.34 50.0894L17.8259 47.5685Z" fill="#1479F4"/>
</g>
<g opacity="0.6">
<path opacity="0.54" d="M30.8356 46.9423C31.8414 44.6484 33.334 42.5773 35.1745 40.8562C36.3808 39.7186 37.7827 38.7533 39.3746 38.2892C40.9665 37.825 42.756 37.9268 44.1359 38.8463C45.6823 39.8761 46.4807 41.8323 46.3239 43.6904C45.7937 50.2574 37.026 52.0457 31.868 50.5321L30.8356 46.9423Z" fill="#1479F4"/>
</g>
<g opacity="0.6">
<path opacity="0.54" d="M20.887 46.2623C19.7403 44.0315 18.1393 42.0447 16.1937 40.4549C14.9258 39.4094 13.4635 38.5187 11.8532 38.1554C10.2428 37.792 8.46346 38.0439 7.14595 39.039C5.67755 40.1885 4.99789 42.2108 5.27283 44.0739C6.21383 50.6496 15.0425 51.8254 20.0896 49.9306L20.887 46.2623Z" fill="#1479F4"/>
</g>
<path d="M32.9013 57.6893C35.0082 58.7211 36.5631 60.4403 37.3932 62.6089C37.5702 63.0419 36.8581 63.2301 36.6811 62.7971C35.931 60.8076 34.4899 59.2761 32.5432 58.3205C32.1303 58.1093 32.4758 57.4572 32.9013 57.6893Z" fill="#3E3E40"/>
<path d="M17.0326 52.1516C16.7839 46.1084 21.3739 41.0585 27.2548 40.8873C33.1342 40.6914 38.0898 45.4359 38.3371 51.4544C38.5319 56.5611 35.3088 60.9492 30.7522 62.2899C30.8764 63.5937 31.1235 64.8913 31.5166 66.1569C30.2533 66.0472 29.0354 65.4409 28.1691 64.5203C27.8284 64.1667 27.5571 63.7354 27.2873 63.3287C27.1517 63.113 27.016 62.8974 26.9064 62.7051C21.5568 62.2565 17.2557 57.7511 17.0326 52.1516Z" fill="#FFDE5A"/>
<path d="M24.3167 41.5452C24.3383 41.9129 24.232 42.2132 24.197 42.4608C22.7601 42.4819 21.3641 44.8861 20.8342 45.9939C19.9693 47.7328 19.2253 49.4166 18.9173 51.3496C18.6473 53.0839 19.1101 55.053 19.701 56.6715C20.292 58.29 21.9127 59.7106 23.4013 60.5721C24.6864 61.3453 26.7133 62.0821 28.1325 62.1848C28.9316 63.5473 29.9957 64.3558 30.8708 64.9031C31.0249 64.994 31.179 65.0848 31.3593 65.1989C31.4274 65.5152 31.5218 65.8548 31.6147 66.1699C30.3437 66.06 29.1181 65.456 28.2461 64.5398C27.9031 64.1877 27.6299 63.7585 27.3582 63.3538C27.2216 63.1392 27.0851 62.9245 26.9746 62.7332C21.6174 62.2822 17.2645 57.8234 17.035 52.2285C16.843 47.271 19.9153 43.0145 24.3167 41.5452Z" fill="#FBC900"/>
<path d="M21.0048 56.6016C22.5046 58.4256 23.1947 60.6439 23.0188 62.9673C22.994 63.4359 22.2534 63.3084 22.2781 62.8398C22.4502 60.7131 21.7837 58.7135 20.3988 57.0261C20.1088 56.6604 20.7121 56.2116 21.0048 56.6016Z" fill="#3E3E40"/>
<path d="M26.2808 62.2129C26.4946 61.8116 26.6691 61.3545 26.6742 60.8918C26.6793 60.4291 26.4953 59.9328 26.0939 59.7153C25.5194 59.3694 24.762 59.6744 24.233 60.0686C23.2065 60.8139 21.0248 63.3552 22.0734 64.7856C23.4639 66.6425 25.7463 63.2162 26.2808 62.2129Z" fill="#3E3E40"/>
<path d="M38.078 58.7233C38.3946 58.3749 38.7392 58.0472 39.1838 57.8787C39.6284 57.7103 40.1526 57.7293 40.522 58.0218C41.064 58.4623 41.023 59.2924 40.8539 59.9425C40.5081 61.194 38.8294 64.1988 37.1062 63.6658C34.8394 62.9921 37.2987 59.5923 38.078 58.7233Z" fill="#3E3E40"/>
<path d="M12.4703 37.854C13.783 45.5 20.2719 45.7299 27.9817 44.2891C35.6915 42.8483 41.7177 40.307 40.405 32.6609C39.0922 25.0149 31.7677 19.9567 24.0579 21.3975C16.348 22.8383 11.1576 30.2079 12.4703 37.854Z" fill="#FFDE5A"/>
<path fill-rule="evenodd" clip-rule="evenodd" d="M30.7329 30.3765C31.5105 31.9399 33.4165 32.5716 34.9632 31.7977C35.5686 31.4987 36.0336 31.0334 36.3312 30.4847L38.3572 28.3174L36.5953 28.1457C36.5418 27.9536 36.4693 27.7637 36.3771 27.5783C35.5995 26.0148 33.6935 25.3831 32.1468 26.1571C30.5823 26.9296 29.954 28.8308 30.7329 30.3765Z" fill="#3E3E40"/>
<mask id="mask0_2549_9468" style="mask-type:alpha" maskUnits="userSpaceOnUse" x="30" y="26" width="7" height="7">
<path d="M31.3721 31.3467C30.2533 30.1444 30.3211 28.2732 31.5229 27.1596C32.7247 26.046 34.5997 26.1184 35.7185 27.3207C36.8373 28.523 36.7695 30.3942 35.5676 31.5078C34.3658 32.6214 32.4908 32.549 31.3721 31.3467Z" fill="#FEFEFE"/>
</mask>
<g mask="url(#mask0_2549_9468)">
<path d="M31.3721 31.3467C30.2533 30.1444 30.3211 28.2732 31.5229 27.1596C32.7247 26.046 34.5997 26.1184 35.7185 27.3207C36.8373 28.523 36.7695 30.3942 35.5676 31.5078C34.3658 32.6214 32.4908 32.549 31.3721 31.3467Z" fill="#FEFEFE"/>
<path d="M31.6767 30.4883C30.9518 29.7149 30.9954 28.4967 31.7687 27.7754C32.542 27.054 33.7629 27.1007 34.4878 27.8741C35.2127 28.6476 35.169 29.8657 34.3958 30.5871C33.6213 31.3246 32.4003 31.2779 31.6767 30.4883Z" fill="#3E3E40"/>
<path d="M34.5079 27.8755C34.8553 28.2448 35.0456 28.7484 35.0237 29.2516C35.0005 29.771 34.785 30.2428 34.4158 30.5886C34.134 30.8597 33.7622 31.0261 33.3827 31.0778C32.7561 31.1591 32.1193 30.9464 31.6968 30.4898C31.4094 30.1904 31.243 29.8027 31.1914 29.4078C31.1914 29.4078 31.1902 29.4239 31.2064 29.4252C31.2465 29.5424 31.2853 29.6757 31.3591 29.7792C31.4166 29.8815 31.4753 29.9675 31.5503 30.0548C31.6253 30.1421 31.7165 30.2307 31.809 30.3031C31.9015 30.3755 31.9951 30.4317 32.0901 30.4717C32.2 30.5292 32.3111 30.5705 32.4397 30.5968C32.5521 30.6219 32.6645 30.647 32.7793 30.6397C32.8929 30.6486 33.024 30.6425 33.1401 30.619C33.2561 30.5956 33.3722 30.5721 33.4733 30.5311C33.5906 30.4914 33.6929 30.4343 33.7964 30.3609C33.8476 30.3324 33.8837 30.2863 33.9349 30.2577C33.9873 30.213 34.0222 30.1831 34.0584 30.1371C34.1469 30.0463 34.2192 29.9542 34.2753 29.8609C34.3314 29.7675 34.3887 29.658 34.4285 29.5634C34.4696 29.4526 34.5119 29.3256 34.5218 29.196C34.523 29.1798 34.523 29.1798 34.5242 29.1636C34.5279 29.1151 34.5328 29.0503 34.5365 29.0017C34.5402 28.9531 34.5439 28.9046 34.5314 28.8547C34.5201 28.7887 34.5238 28.7401 34.5125 28.6741C34.5137 28.6579 34.4999 28.6242 34.5012 28.608L34.5024 28.5918C34.5049 28.5594 34.4899 28.542 34.4761 28.5083C34.451 28.4086 34.411 28.2915 34.3522 28.2054C34.3234 28.1543 34.2947 28.1032 34.2659 28.0521C34.2509 28.0346 34.2521 28.0184 34.2359 28.0171C34.2071 27.966 34.1609 27.9298 34.1322 27.8787C34.1022 27.8438 34.0872 27.8263 34.0572 27.7914C34.0122 27.739 33.9659 27.7028 33.9047 27.6492C33.8735 27.6304 33.8435 27.5955 33.8123 27.5768C33.781 27.558 33.7348 27.5218 33.7036 27.5031C33.5937 27.4456 33.4838 27.3882 33.3564 27.3456C33.3089 27.3256 33.2602 27.3218 33.229 27.3031C33.2128 27.3018 33.2128 27.3018 33.1965 27.3005C33.1316 27.2954 33.0842 27.2754 33.0192 27.2704C33.003 27.2691 32.9868 27.2678 32.9543 27.2653C33.5285 27.2288 34.0993 27.4526 34.5079 27.8755Z" fill="#353535"/>
<path d="M34.9503 29.3002C34.4864 29.3611 34.1011 29.2505 34.0679 29.038C34.0347 28.8256 34.3802 28.594 34.8441 28.5331C35.3081 28.4721 35.6934 28.5827 35.7266 28.7952C35.7598 29.0077 35.4154 29.2232 34.9503 29.3002Z" fill="#FEFEFE"/>
<path d="M32.2506 33.2935C31.0357 32.8964 30.83 31.9576 31.7895 31.1929C32.749 30.4282 34.5061 30.1315 35.721 30.5286C36.9359 30.9256 37.1416 31.8644 36.1821 32.6291C35.2225 33.3938 33.4655 33.6905 32.2506 33.2935Z" fill="#FBC900"/>
</g>
<path fill-rule="evenodd" clip-rule="evenodd" d="M23.6074 31.0538C23.2754 32.7978 21.5665 33.9874 19.82 33.7126C19.1003 33.6032 18.4832 33.2681 18.0275 32.7911L15.7055 31.4708L17.1873 30.8238C17.1758 30.5797 17.1929 30.3293 17.241 30.0764C17.573 28.3324 19.2819 27.1429 21.0284 27.4176C22.7923 27.6856 23.9457 29.3266 23.6074 31.0538Z" fill="#3E3E40"/>
<mask id="mask1_2549_9468" style="mask-type:alpha" maskUnits="userSpaceOnUse" x="17" y="27" width="7" height="7">
<path d="M23.2651 32.1824C24.0339 30.6826 23.4419 28.8977 21.9412 28.1883C20.4406 27.4788 18.6072 28.1182 17.8384 29.618C17.0697 31.1179 17.6617 32.9027 19.1623 33.6121C20.6629 34.3216 22.4964 33.6823 23.2651 32.1824Z" fill="#FEFEFE"/>
</mask>
<g mask="url(#mask1_2549_9468)">
<path d="M23.2651 32.1824C24.0339 30.6826 23.4419 28.8977 21.9412 28.1883C20.4406 27.4788 18.6072 28.1182 17.8384 29.618C17.0697 31.1179 17.6617 32.9027 19.1623 33.6121C20.6629 34.3216 22.4964 33.6823 23.2651 32.1824Z" fill="#FEFEFE"/>
<path d="M22.9934 31.2372C23.3235 30.2489 22.7829 29.2046 21.7941 28.9094C20.8053 28.6141 19.7321 29.1827 19.4019 30.171C19.0718 31.1593 19.6124 32.2036 20.6012 32.4988C21.5978 32.8077 22.671 32.2391 22.9934 31.2372Z" fill="#3E3E40"/>
<path d="M19.3855 30.1793C19.2266 30.6517 19.2637 31.1734 19.4905 31.603C19.7251 32.0463 20.1122 32.3649 20.5849 32.507C20.9487 32.6218 21.35 32.6063 21.7108 32.4874C22.305 32.2875 22.7873 31.8265 22.9773 31.2455C23.1112 30.8599 23.1006 30.4497 22.9841 30.0827C22.9841 30.0827 22.9919 30.0963 22.9779 30.1044C22.9903 30.224 23.0104 30.3572 22.987 30.4794C22.9776 30.5935 22.9605 30.6939 22.9293 30.8026C22.8982 30.9112 22.853 31.0279 22.8001 31.131C22.7472 31.2342 22.6865 31.3237 22.618 31.3997C22.5433 31.4973 22.4608 31.5814 22.3566 31.66C22.2664 31.7305 22.1761 31.8009 22.0704 31.8442C21.9724 31.9011 21.8526 31.9525 21.7391 31.9821C21.6255 32.0118 21.512 32.0415 21.4047 32.0494C21.2834 32.0655 21.1683 32.0599 21.0454 32.0406C20.9879 32.0378 20.9366 32.0132 20.8791 32.0104C20.8137 31.994 20.7702 31.9831 20.7189 31.9585C20.6023 31.9175 20.4997 31.8684 20.4111 31.8112C20.3224 31.754 20.2261 31.6832 20.1515 31.6179C20.0691 31.5389 19.9789 31.4464 19.9168 31.3376C19.909 31.324 19.909 31.324 19.9012 31.3104C19.8779 31.2696 19.8469 31.2152 19.8235 31.1744C19.8002 31.1336 19.7769 31.0928 19.7676 31.0439C19.7505 30.9814 19.7272 30.9406 19.7102 30.8781C19.7024 30.8645 19.7009 30.8292 19.6931 30.8156L19.6853 30.802C19.6698 30.7748 19.676 30.753 19.6745 30.7177C19.6559 30.6199 19.6435 30.5003 19.6606 30.3998C19.6653 30.3428 19.67 30.2857 19.6747 30.2287C19.681 30.207 19.6732 30.1934 19.6872 30.1853C19.6919 30.1282 19.7183 30.0766 19.723 30.0196C19.7355 29.9762 19.7417 29.9544 19.7542 29.911C19.7729 29.8458 19.7994 29.7943 19.8321 29.721C19.8523 29.6911 19.8647 29.6477 19.885 29.6178C19.9052 29.588 19.9317 29.5364 19.9519 29.5066C20.0266 29.4089 20.1013 29.3112 20.1978 29.219C20.232 29.1811 20.274 29.1567 20.2942 29.1268C20.3082 29.1187 20.3082 29.1187 20.3222 29.1106C20.3782 29.0781 20.4125 29.0401 20.4685 29.0076C20.4825 28.9995 20.4965 28.9914 20.5245 28.9751C19.9956 29.1915 19.5771 29.6335 19.3855 30.1793Z" fill="#353535"/>
<path d="M19.638 31.6476C20.0712 31.5007 20.365 31.2366 20.307 31.035C20.2491 30.8333 19.8501 30.7786 19.417 30.9255C18.9838 31.0724 18.69 31.3365 18.748 31.5382C18.8059 31.7398 19.1972 31.7809 19.638 31.6476Z" fill="#FEFEFE"/>
<path d="M23.0237 34.275C24.104 33.5307 24.0556 32.5752 22.9161 32.1369C21.7766 31.6986 19.9831 31.9462 18.9028 32.6905C17.8225 33.4348 17.8709 34.3902 19.0104 34.8286C20.1499 35.2669 21.9434 35.0193 23.0237 34.275Z" fill="#FBC900"/>
</g>
<path d="M25.3735 39.1337C26.0545 38.852 26.4018 38.4313 26.3556 38.1581C25.8201 37.7364 24.9261 37.754 24.2607 38.0312C23.5797 38.3129 24.0195 38.738 24.1546 38.9903C24.2771 39.2583 24.6956 39.4267 25.3735 39.1337Z" fill="#FBC900"/>
<path d="M12.5062 37.8655C11.6168 32.623 13.7749 27.5094 17.706 24.3635C14.5622 27.5399 12.9339 32.1009 13.7218 36.7617C15.0384 44.4008 21.5397 44.6314 29.2639 43.1931C33.067 42.4928 36.4719 41.51 38.7655 39.7814C36.562 42.2232 32.5884 43.464 28.0247 44.3044C20.3169 45.7118 13.8228 45.5045 12.5062 37.8655Z" fill="#FBC900"/>
<path d="M15.6695 21.9271C15.4218 20.7213 15.3435 20.4823 15.3435 20.4823L15.5515 20.4223L19.4613 19.5631L29.3596 17.4449L29.7137 19.4664L30.1532 21.8711C27.1395 23.7779 20.1598 27.1119 16.3509 25.193C16.1269 24.0188 15.9409 23.1646 15.7856 22.4861C15.7311 22.2787 15.7003 22.103 15.6695 21.9272L15.6695 21.9271Z" fill="#0660CE"/>
<path opacity="0.4" d="M15.5503 20.4603C15.5393 20.9178 15.5519 21.407 15.644 21.9348C15.6747 22.1107 15.7053 22.2866 15.7597 22.4942C23.2178 26.7247 29.6773 19.501 29.6773 19.501L29.3244 17.4779L15.5503 20.4603Z" fill="#121D38"/>
<path opacity="0.2" d="M15.3517 20.5052C15.3517 20.5052 15.4305 20.7438 15.6803 21.9473C15.7114 22.1228 15.7424 22.2982 15.7974 22.5053C15.9539 23.1825 16.1674 24.0558 16.3932 25.2278C20.2729 26.7993 24.8139 24.6997 27.7784 23.2332C24.0213 24.0147 22.8613 21.9525 22.8613 21.9525C22.8613 21.9525 21.2619 20.7815 19.494 19.5896L15.5609 20.4454L15.3517 20.5052Z" fill="black"/>
<path d="M7.9963 20.3258L22.634 21.9917L30.4 16.3069L36.6061 11.7639L20.9935 10.8118L7.9963 20.3258Z" fill="#1479F4"/>
<path opacity="0.2" d="M7.99564 20.3412L22.6965 22.0091L30.7144 16.1745C16.8092 21.38 20.3843 11.4156 20.3843 11.4156L7.99564 20.3412Z" fill="black"/>
<path d="M20.8242 16.1842L13.9815 21.4248L13.2882 23.4846" stroke="#2C3E60" stroke-width="0.685926" stroke-miterlimit="10"/>
<path d="M12.697 24.323L9.57585 28.3424C9.36298 28.6074 9.44802 28.9317 9.70126 29.0678L10.3549 29.3895C10.5705 29.5231 10.8482 29.3819 10.9823 29.1516L13.1876 23.9168L12.7794 24.2487C12.7382 24.2858 12.7382 24.2858 12.697 24.323Z" fill="#2C3E60"/>
<g opacity="0.3">
<path opacity="0.3" d="M10.0239 29.2478C10.4747 28.4408 10.9289 27.5942 11.4175 26.7897C11.6412 26.406 11.8648 26.0223 12.0885 25.6387C12.4016 25.1015 12.7113 24.6039 13.0244 24.0668L13.0965 24.1113L13.1687 24.1559L12.9107 24.4975L12.1779 25.4852C12.1367 25.5223 12.0919 25.5991 12.0507 25.6362C11.7514 26.0149 11.49 26.3961 11.1907 26.7749L10.2034 28.0646C9.98669 28.369 9.73562 28.6314 9.51889 28.9359L9.48455 28.8938C9.70128 28.5894 9.918 28.2849 10.0969 27.9779L11.122 26.6907C11.4282 26.2328 11.7687 25.8169 12.0749 25.3589L13.0278 24.0272L13.1 24.0717L13.1721 24.1163C13.0414 24.3069 12.9485 24.5 12.8177 24.6906C12.4152 25.3812 11.9713 26.109 11.5309 26.7972C11.0732 27.6833 10.5881 28.4483 10.0239 29.2478Z" fill="#323332"/>
</g>
<path opacity="0.5" d="M13.3548 23.3318C13.6569 23.4306 13.8224 23.7587 13.7562 24.0719C13.6514 24.3827 13.3252 24.5601 13.0197 24.5008C12.7176 24.4021 12.5521 24.0739 12.6183 23.7607C12.7265 23.4105 13.0527 23.233 13.3548 23.3318Z" fill="#121D38"/>
<path d="M20.8137 15.5848C21.2217 15.5422 21.5676 15.7496 21.5871 15.9911C21.6098 16.2729 21.3029 16.5486 20.9357 16.5869C20.5277 16.6295 20.1818 16.4221 20.1623 16.1806C20.1396 15.8988 20.4057 15.6274 20.8137 15.5848Z" fill="#081121"/>
<path d="M25.1288 41.2049C25.7692 41.0883 26.1476 40.7881 26.1591 40.542C25.7762 40.0748 25.0016 39.9218 24.3756 40.0373C23.7353 40.1539 24.0349 40.6061 24.1042 40.8507C24.1596 41.1067 24.489 41.3318 25.1288 41.2049Z" fill="#FBC900"/>
<mask id="mask2_2549_9468" style="mask-type:alpha" maskUnits="userSpaceOnUse" x="23" y="34" width="9" height="6">
<path d="M23.0838 35.5496C23.7734 40.2514 31.2588 40.4182 31.214 35.5661C31.2137 34.9727 30.7157 34.4701 30.1909 34.4732C27.8407 35.0903 26.4836 35.1333 23.9661 34.4682C23.5009 34.4633 23.0011 34.9553 23.0838 35.5496Z" fill="#3E3E40"/>
</mask>
<g mask="url(#mask2_2549_9468)">
<path d="M23.0838 35.5496C23.7734 40.2514 31.2588 40.4182 31.214 35.5661C31.2137 34.9727 30.7157 34.4701 30.1909 34.4732C27.8407 35.0903 26.4836 35.1333 23.9661 34.4682C23.5009 34.4633 23.0011 34.9553 23.0838 35.5496Z" fill="#3E3E40"/>
<path d="M22.6019 34.1804C23.1016 36.2847 29.8867 36.3973 29.9759 34.2291C29.9916 33.964 29.5532 33.7369 29.0771 33.7356C26.9289 33.9994 25.6967 34.0117 23.4311 33.7018C23.0093 33.6972 22.5427 33.9145 22.6019 34.1804Z" fill="white"/>
<ellipse rx="4.01624" ry="2.59502" transform="matrix(-0.890739 -0.406438 -0.43953 0.920863 26.9021 39.0464)" fill="#FF6111"/>
</g>
<path d="M38.8723 33.6988C39.3888 33.4538 38.4381 31.5283 37.9216 31.7733C37.405 32.0183 38.3558 33.9438 38.8723 33.6988Z" fill="white"/>
<path d="M37.3425 33.6936C37.7369 33.5395 37.1403 32.0712 36.7459 32.2253C36.3516 32.3793 36.9482 33.8477 37.3425 33.6936Z" fill="white"/>
<path d="M16.7051 36.9727C16.1742 36.9272 16.3649 34.7857 16.8958 34.8311C17.4267 34.8766 17.236 37.0182 16.7051 36.9727Z" fill="white"/>
<path d="M18.1043 36.3765C17.6606 36.366 17.7207 34.7677 18.1643 34.7782C18.608 34.7888 18.5479 36.3871 18.1043 36.3765Z" fill="white"/>
<path d="M25.6932 32.9193C25.7157 33.4732 26.5195 33.8537 27.4856 33.7604C28.4517 33.667 29.2293 33.1398 29.2068 32.5858C29.1843 32.0319 28.3805 31.6514 27.4144 31.7447C26.4483 31.8381 25.6707 32.3653 25.6932 32.9193Z" fill="#FBC900"/>
<path d="M16.0354 23.1468C15.2404 22.4537 14.0939 23.2472 14.4377 24.2638C14.596 24.7131 13.8986 24.959 13.7588 24.525C13.1868 22.8421 15.1524 21.4275 16.4999 22.5802C16.8499 22.8713 16.3853 23.4379 16.0354 23.1468Z" fill="#3E3E40"/>
<path d="M35.4083 20.562C35.2976 19.7731 34.3326 19.3988 33.7754 20.0507C33.483 20.4003 32.8833 19.9984 33.1757 19.6488C34.1068 18.5298 35.8934 18.9279 36.1221 20.4082C36.1859 20.852 35.4703 21.0301 35.4083 20.562Z" fill="#3E3E40"/>
<path d="M33.1411 24.8796C32.6359 24.3267 31.9868 23.9537 31.2563 23.7908C30.8056 23.687 30.9397 22.9645 31.3905 23.0683C32.3151 23.2678 33.1054 23.748 33.7451 24.4623C34.0534 24.8234 33.4495 25.2408 33.1411 24.8796Z" fill="white"/>
<path d="M30.3161 23.5158C29.8691 23.6701 29.6367 22.98 30.0837 22.8257C30.5307 22.6714 30.7631 23.3615 30.3161 23.5158Z" fill="white"/>
<path d="M18.0328 56.0889C17.6985 55.2737 17.4526 54.3916 17.2992 53.4671C17.2024 52.8832 17.1779 52.2856 17.1776 51.6835C20.3362 53.1714 23.6716 54.2246 27.1795 54.3672C31.0615 54.5146 34.971 53.4776 38.3812 51.5311C38.3981 53.1336 38.057 54.6781 37.4423 56.0733C34.1887 57.4635 30.6692 58.1511 27.097 58.0708C23.9713 57.9818 20.9338 57.2238 18.0328 56.0889Z" fill="#3E3E40"/>
<path d="M17.4219 48.8645C17.7671 47.6432 18.3012 46.5119 19 45.4751C24.4121 47.8455 30.6955 47.8146 36.1909 45.2685C36.8741 46.2453 37.4047 47.3514 37.7504 48.5427C31.2427 51.5816 23.8546 51.6955 17.4219 48.8645Z" fill="#3E3E40"/>
<path d="M33.1012 51.733C33.6181 52.6368 33.8564 54.3683 32.3199 54.1233C31.8546 54.0446 30.419 53.1294 31.4643 52.7382C31.6577 52.6783 31.8688 52.6921 32.08 52.7058C31.9097 52.4772 31.7667 52.202 31.6707 51.9299C31.5727 51.6818 31.5255 51.3887 31.6855 51.1575C31.8709 50.9037 32.2501 50.88 32.52 51.0426C32.7918 51.1812 32.9582 51.4579 33.1012 51.733Z" fill="#3E3E40"/>
<path d="M27.6375 52.277C27.2276 53.2749 27.2277 55.0522 28.7969 54.5313C29.2714 54.3692 30.639 53.1951 29.4913 52.9906C29.2807 52.9652 29.0622 53.0168 28.8437 53.0684C28.9887 52.8089 29.0984 52.5076 29.1596 52.2178C29.2263 51.9518 29.2335 51.6497 29.0331 51.4467C28.803 51.2257 28.4037 51.27 28.1452 51.4812C27.8813 51.6687 27.7473 51.9757 27.6375 52.277Z" fill="#3E3E40"/>
<rect width="19.125" height="19.5173" rx="4" transform="matrix(0.973466 -0.207841 0.229509 0.977995 23.4873 41.2393)" fill="#0075F3"/>
<path d="M30.5073 53.4542L30.667 54.1347L30.7752 54.5958C30.9234 55.2271 31.4329 55.17 32.0487 55.0385L33.0577 54.8231L32.7898 53.6815L32.6301 53.0009L31.5353 48.3359L29.4082 48.79L30.503 53.4551L30.5073 53.4542Z" fill="white"/>
<path d="M28.9049 46.6232L28.6654 45.6025C28.5172 44.9713 28.8952 44.3547 29.5109 44.2232L30.6243 43.9855L32.8555 43.5091L35.0868 43.0327L36.8988 42.6458L39.0252 42.1918L39.5621 44.4794L40.0989 46.767L40.6 48.9024L40.6357 49.0546L41.1369 51.19L41.2965 51.8704C41.4447 52.5016 41.0667 53.1182 40.451 53.2497L39.438 53.466L37.626 53.8529L35.1895 54.373L34.6863 52.2287L37.1227 51.7085L38.5505 51.4037C38.7645 51.358 38.8938 51.1471 38.8423 50.9277L38.5093 49.5086L38.4736 49.3564L37.9725 47.221L37.4062 44.8081L35.5942 45.195L33.363 45.6713L31.1317 46.1477L28.9049 46.6232Z" fill="white"/>
<path d="M35.4967 47.4805L33.9464 47.8115C33.7892 47.8451 33.6887 48.0029 33.7276 48.1686L34.1007 49.7585C34.1385 49.9198 34.2967 50.0271 34.4583 49.9926L36.0085 49.6616C36.1657 49.628 36.2662 49.4702 36.2274 49.3045L35.8543 47.7146C35.8154 47.5489 35.6539 47.447 35.4967 47.4805Z" fill="#FF9B00"/>
<path d="M44.2905 43.8347C45.1166 44.3374 46.0804 45.6209 44.684 46.0473C44.2627 46.1837 42.6806 46.0216 43.3783 45.3126C43.5131 45.1878 43.6909 45.1077 43.8688 45.0276C43.629 44.9115 43.3902 44.7524 43.1958 44.5733C43.0229 44.4164 42.8515 44.195 42.8785 43.9587C42.9064 43.6794 43.2186 43.4961 43.5267 43.5067C43.7903 43.5373 44.0516 43.6756 44.2905 43.8347Z" fill="#3E3E40"/>
<path d="M24.9022 48.094C24.3415 48.8536 23.9579 50.397 25.401 50.3163C25.8395 50.2993 27.2241 49.5996 26.3105 49.1722C26.1388 49.1011 25.9449 49.0871 25.7511 49.073C25.9254 48.8807 26.0822 48.6481 26.1905 48.412C26.2878 48.2043 26.3587 47.9362 26.2423 47.7228C26.1083 47.4691 25.7515 47.4042 25.4737 47.5206C25.2444 47.6406 25.059 47.8614 24.9022 48.094Z" fill="#3E3E40"/>
</svg>
