<svg width="105" height="30" viewBox="0 0 105 30" fill="none" xmlns="http://www.w3.org/2000/svg">
<g clip-path="url(#clip0_24040_68065)">
<path d="M0 6.00098V3.16977C0 1.41806 1.41806 0 3.16977 0H30.2159V26.8302C30.2159 28.5819 28.7978 30 27.0461 30H12.0854V24.0481H23.0716C23.6752 24.0481 24.1658 23.5574 24.1658 22.9539V6.00098H0Z" fill="#1479F3"/>
<path d="M0 24.9382V28.1079C0 29.8596 1.41806 30.0019 3.16977 30.0019H6.04514V12.0039H0V24.9431V24.9382Z" fill="#1479F3"/>
<path d="M36.2938 23.7858C36.1761 23.668 36.1172 23.5208 36.1172 23.3491V6.70038C36.1172 6.51392 36.1712 6.35691 36.284 6.23914C36.3969 6.12138 36.5441 6.0625 36.7305 6.0625H43.5853C45.6461 6.0625 47.2703 6.54827 48.443 7.51981C49.6206 8.49135 50.2094 9.9045 50.2094 11.7642C50.2094 13.6238 49.6206 14.9977 48.443 15.9447C47.2654 16.8917 45.6461 17.3628 43.5853 17.3628H39.8267V23.3491C39.8267 23.5355 39.7678 23.6876 39.6501 23.7956C39.5323 23.9084 39.3753 23.9624 39.1888 23.9624H36.7354C36.5637 23.9624 36.4214 23.9035 36.2987 23.7809M43.4626 14.4972C44.4538 14.4972 45.2045 14.2617 45.7246 13.7956C46.2448 13.3294 46.5048 12.6425 46.5048 11.7347C46.5048 10.827 46.2546 10.1597 45.7492 9.66407C45.2438 9.16849 44.4832 8.92315 43.4577 8.92315H39.7727V14.4972H43.4577H43.4626Z" fill="#313131"/>
<path d="M54.4579 23.7858C54.3401 23.668 54.2812 23.5208 54.2812 23.3491V6.70038C54.2812 6.51392 54.3352 6.35691 54.4481 6.23914C54.5609 6.12138 54.7081 6.0625 54.8946 6.0625H61.5187C63.6139 6.0625 65.2577 6.54827 66.4402 7.51981C67.6228 8.49135 68.2165 9.87015 68.2165 11.6611C68.2165 12.9074 67.9172 13.9477 67.3185 14.7916C66.7199 15.6356 65.8858 16.2441 64.8112 16.6219L68.5207 23.143C68.5698 23.246 68.5992 23.3392 68.5992 23.4227C68.5992 23.5748 68.5452 23.7023 68.4324 23.8054C68.3195 23.9084 68.1968 23.9575 68.0595 23.9575H65.7091C65.4343 23.9575 65.2233 23.8937 65.0712 23.7661C64.9191 23.6386 64.7817 23.4717 64.664 23.2656L61.3912 17.2058H57.8877V23.3442C57.8877 23.5159 57.8288 23.6582 57.7111 23.7809C57.5933 23.8986 57.4363 23.9575 57.2498 23.9575H54.8946C54.7229 23.9575 54.5806 23.8986 54.4579 23.7809M61.4402 14.2912C62.4657 14.2912 63.2312 14.0654 63.7415 13.614C64.2518 13.1626 64.507 12.5002 64.507 11.6317C64.507 10.7632 64.2518 10.091 63.7415 9.62482C63.2312 9.15377 62.4608 8.92315 61.4402 8.92315H57.8877V14.2961H61.4402V14.2912Z" fill="#313131"/>
<path d="M72.9735 23.7829C72.8558 23.6651 72.7969 23.5179 72.7969 23.3462V6.69747C72.7969 6.51102 72.8508 6.35891 72.9637 6.23624C73.0766 6.11848 73.2238 6.05469 73.4102 6.05469H84.6909C84.8773 6.05469 85.0344 6.11357 85.1521 6.23624C85.2699 6.354 85.3288 6.51102 85.3288 6.69747V8.40994C85.3288 8.59639 85.2699 8.7485 85.1521 8.85645C85.0344 8.96931 84.8773 9.02328 84.6909 9.02328H76.3003V13.4983H84.1266C84.3131 13.4983 84.4652 13.5571 84.5878 13.6798C84.7056 13.7976 84.7694 13.9546 84.7694 14.141V15.7505C84.7694 15.9369 84.7105 16.089 84.5878 16.197C84.4701 16.3098 84.3131 16.3638 84.1266 16.3638H76.3003V20.9909H84.8921C85.0785 20.9909 85.2306 21.0449 85.3533 21.1577C85.4711 21.2706 85.5299 21.4178 85.5299 21.6042V23.3412C85.5299 23.5277 85.4711 23.6798 85.3533 23.7878C85.2355 23.9006 85.0785 23.9546 84.8921 23.9546H73.4102C73.2385 23.9546 73.0962 23.8957 72.9735 23.7779" fill="#313131"/>
<path d="M90.1816 23.7858C90.0638 23.668 90 23.5208 90 23.3491V6.70038C90 6.51392 90.054 6.35691 90.1668 6.23914C90.2797 6.12138 90.4269 6.0625 90.6133 6.0625H97.4681C99.5289 6.0625 101.153 6.54827 102.326 7.51981C103.503 8.49135 104.092 9.9045 104.092 11.7642C104.092 13.6238 103.503 14.9977 102.326 15.9447C101.148 16.8917 99.5289 17.3628 97.4681 17.3628H93.7095V23.3491C93.7095 23.5355 93.6506 23.6876 93.528 23.7956C93.4102 23.9084 93.2532 23.9624 93.0667 23.9624H90.6133C90.4416 23.9624 90.2993 23.9035 90.1766 23.7809M97.3356 14.4972C98.3219 14.4972 99.0775 14.2617 99.5977 13.7956C100.118 13.3294 100.378 12.6425 100.378 11.7347C100.378 10.827 100.128 10.1597 99.6222 9.66407C99.1168 9.16849 98.3562 8.92315 97.3356 8.92315H93.6506V14.4972H97.3356Z" fill="#313131"/>
<path d="M17.3087 11.9766H12.8976C12.4461 11.9766 12.0781 12.3397 12.0781 12.796V17.2072C12.0781 17.6586 12.4412 18.0266 12.8976 18.0266H17.3087C17.7602 18.0266 18.1282 17.6635 18.1282 17.2072V12.796C18.1282 12.3446 17.7602 11.9766 17.3087 11.9766Z" fill="#FF9E00"/>
</g>
<defs>
<clipPath id="clip0_24040_68065">
<rect width="104.097" height="30" fill="white"/>
</clipPath>
</defs>
</svg>
