<svg width="135" height="156" viewBox="0 0 135 156" fill="none" xmlns="http://www.w3.org/2000/svg">
<path d="M42.4812 43.3321C51.2739 52.124 62.9572 54.6968 68.5767 49.0773C74.1963 43.4577 71.6243 31.7737 62.8315 22.9817C54.0388 14.189 42.3556 11.6162 36.736 17.2358C31.1164 22.8554 33.6885 34.5394 42.4812 43.3321Z" fill="#61D77E"/>
<path d="M47.8926 28.3926C50.9192 25.366 70.8995 44.138 71.15 44.4588C70.6931 46.2375 69.843 47.8114 68.5772 49.0772C67.3106 50.343 65.7375 51.1931 63.9588 51.65C63.638 51.3995 44.866 31.4192 47.8926 28.3926Z" fill="#00C67F"/>
<path d="M64.23 49.0005L64.23 68.9209H71.5528V38.3408L64.23 49.0005Z" fill="#72D98B"/>
<path d="M64.2305 59.0393C66.3157 60.1795 68.7427 61.147 71.5532 61.799V58.4995L64.2305 46.7781L64.2305 59.0393Z" fill="#00B172"/>
<path d="M93.3013 50.0723C102.094 41.2796 104.667 29.5963 99.0465 23.976C93.4269 18.3565 81.7436 20.9292 72.9509 29.7219C64.1582 38.5139 61.5862 50.1979 67.2057 55.8175C72.8253 61.437 84.5086 58.865 93.3013 50.0723Z" fill="#72D98B"/>
<path d="M87.8902 35.1338C84.8635 32.1072 64.8833 50.8792 64.6328 51.2C65.0896 52.9787 65.9398 54.5526 67.2056 55.8184C68.4721 57.0842 70.0453 57.9343 71.824 58.3912C72.1448 58.1407 90.9168 38.1604 87.8902 35.1338Z" fill="#00C67F"/>
<path d="M77.4568 74.9993C77.4568 80.2817 73.1741 84.5644 67.8917 84.5644C62.6094 84.5644 58.3267 80.2817 58.3267 74.9993C58.3267 69.7162 62.6094 61.4297 67.8917 61.4297C73.1741 61.4297 77.4568 69.7162 77.4568 74.9993Z" fill="#F9EE80"/>
<path d="M104.684 15.1637L105.514 16.6808C106.341 18.1948 107.586 19.439 109.099 20.2666L110.617 21.0966C112.17 21.9459 112.17 24.177 110.617 25.0256L109.099 25.8555C107.585 26.684 106.341 27.9281 105.514 29.4422L104.684 30.9592C103.834 32.5121 101.604 32.5121 100.755 30.9592L99.9246 29.4422C99.0969 27.9281 97.852 26.684 96.3387 25.8555L94.8209 25.0256C93.268 24.177 93.268 21.9459 94.8209 21.0966L96.3387 20.2666C97.852 19.439 99.0969 18.1948 99.9246 16.6808L100.755 15.1637C101.604 13.6108 103.834 13.6108 104.684 15.1637Z" fill="#F4E74D"/>
<path d="M37.2534 42.6157L37.8777 43.7582C38.5013 44.8984 39.4381 45.8352 40.5776 46.4581L41.7201 47.0831C42.8894 47.7224 42.8894 49.4017 41.7201 50.0409L40.5776 50.666C39.4381 51.2888 38.5013 52.2257 37.8777 53.3651L37.2534 54.5076C36.6134 55.677 34.9349 55.677 34.2956 54.5076L33.6705 53.3651C33.047 52.2257 32.1101 51.2888 30.9707 50.666L29.8282 50.0409C28.6588 49.4017 28.6588 47.7224 29.8282 47.0831L30.9707 46.4581C32.1101 45.8345 33.047 44.8984 33.6705 43.7582L34.2956 42.6157C34.9349 41.4471 36.6141 41.4471 37.2534 42.6157Z" fill="#F4E74D"/>
<path d="M120.073 90.0195C120.073 100.909 119.176 115.71 116.919 129.185C114.398 144.244 101.331 155.259 86.0613 155.259H48.7206C33.451 155.259 20.3842 144.244 17.8622 129.185C15.6057 115.71 14.709 100.909 14.709 90.0195H120.073Z" fill="#F7E969"/>
<path d="M67.3916 107.56C85.2835 107.56 105.551 106.067 119.617 104.565C119.93 99.3167 120.073 94.3572 120.073 90.0195H14.71C14.71 100.909 15.6064 115.71 17.8632 129.185C20.3852 144.244 33.4517 155.259 48.7213 155.259H68.4279C48.6309 146.35 44.535 123.15 45.1101 106.927C52.5481 107.316 60.1637 107.56 67.3916 107.56Z" fill="#F5C956"/>
<path d="M134.778 73.0475C134.717 67.0366 129.459 62.396 123.485 63.0641C109.302 64.6503 86.9616 66.4007 67.3913 66.4007C64.0334 66.4007 60.593 66.3481 57.1272 66.2548C47.7389 73.305 45.4812 90.6326 64.5418 97.7622C65.4971 97.7705 66.4483 97.776 67.3913 97.776C86.2999 97.776 107.93 96.0561 121.363 94.5294C128.243 93.7473 133.709 88.3166 134.423 81.4291C134.705 78.7087 134.806 75.8282 134.778 73.0475Z" fill="#5B91F8"/>
<path d="M64.5418 97.7622C55.5313 89.7032 54.7745 73.0712 57.1272 66.2547C40.3939 65.8039 23.047 64.3782 11.2975 63.0641C5.32342 62.396 0.065112 67.0369 0.00452605 73.0475C-0.0235638 75.8284 0.0772292 78.7087 0.359229 81.4288C1.07332 88.3166 6.53955 93.7473 13.4199 94.5291C26.1823 95.9796 46.344 97.6036 64.5418 97.7622Z" fill="#0466BC"/>
<path d="M53.1719 129.632C53.1719 133.188 49.5516 136.071 45.0861 136.071C40.6203 136.071 37 133.188 37 129.632C37 126.075 40.62 123.192 45.0861 123.192C49.5516 123.192 53.1719 126.075 53.1719 129.632Z" fill="#FFA1AC"/>
<path d="M80.8301 129.632C80.8301 133.188 84.4503 136.071 88.9156 136.071C93.3817 136.071 97.0017 133.188 97.0017 129.632C97.0017 126.075 93.3817 123.192 88.9156 123.192C84.4503 123.192 80.8301 126.075 80.8301 129.632Z" fill="#FFA1AC"/>
<path d="M49.7973 125.56C48.6221 125.56 47.6699 124.608 47.6699 123.433V120.127C47.6699 118.952 48.6221 118 49.7973 118C50.9725 118 51.9247 118.952 51.9247 120.127V123.433C51.9247 124.608 50.9725 125.56 49.7973 125.56Z" fill="#495560"/>
<path d="M84.2031 125.56C83.0279 125.56 82.0757 124.608 82.0757 123.433V120.127C82.0757 118.952 83.0279 118 84.2031 118C85.3782 118 86.3305 118.952 86.3305 120.127V123.433C86.3305 124.608 85.378 125.56 84.2031 125.56Z" fill="#495560"/>
<path d="M67.0016 127.528C64.6484 127.528 62.411 126.509 60.8625 124.732C60.0904 123.846 60.1829 122.503 61.0687 121.731C61.9546 120.959 63.298 121.051 64.0704 121.937C64.8101 122.786 65.8789 123.273 67.0016 123.273C68.1243 123.273 69.1928 122.786 69.9326 121.937C70.7044 121.051 72.0481 120.959 72.9339 121.731C73.8198 122.503 73.9122 123.846 73.1404 124.732C71.5925 126.509 69.3548 127.528 67.0016 127.528Z" fill="#495560"/>
</svg>
