<svg width="20" height="20" viewBox="0 0 20 20" fill="none" xmlns="http://www.w3.org/2000/svg">
<path fill-rule="evenodd" clip-rule="evenodd" d="M1.6665 10.0042C1.6665 5.40456 5.40685 1.66602 9.99984 1.66602C14.5928 1.66602 18.3332 5.40456 18.3332 10.0042C18.3332 14.5941 14.5928 18.3327 9.99984 18.3327C5.40685 18.3327 1.6665 14.5941 1.6665 10.0042ZM13.2568 7.19714C12.9515 6.91724 12.477 6.93787 12.1971 7.24321L8.65191 11.1107L7.32618 9.51986C7.06101 9.20166 6.58809 9.15866 6.26988 9.42384C5.95167 9.68901 5.90868 10.1619 6.17385 10.4801L8.04885 12.7301C8.33953 13.079 8.87106 13.0915 9.17788 12.7568L13.3029 8.2568C13.5828 7.95146 13.5621 7.47703 13.2568 7.19714Z" fill="#1CBB44"/>
</svg>
